<?xml version="1.0" encoding="utf-8"?>
<!-- Generator: Adobe Illustrator 19.0.0, SVG Export Plug-In . SVG Version: 6.00 Build 0)  -->
<svg version="1.2" baseProfile="tiny" id="Layer_1" xmlns="http://www.w3.org/2000/svg" xmlns:xlink="http://www.w3.org/1999/xlink"
	 x="0px" y="0px" width="165px" height="127px" viewBox="0 0 165 127" xml:space="preserve">
<g id="XMLID_2992_">
	<line fill="none" x1="103.4" y1="29.6" x2="106.7" y2="28.8"/>
	<path d="M103.3,30.4c-0.4,0-0.7-0.3-0.8-0.6c-0.1-0.5,0.2-0.9,0.6-1l3.3-0.7c0.5-0.1,0.9,0.2,1,0.6s-0.2,0.9-0.6,1l-3.3,0.7
		C103.5,30.4,103.4,30.4,103.3,30.4z"/>
</g>
<g id="XMLID_2991_">
	<line fill="none" x1="75.6" y1="23.5" x2="73.2" y2="28"/>
	<path d="M73.2,28.8c-0.1,0-0.3,0-0.4-0.1c-0.4-0.2-0.5-0.7-0.4-1.1l2.4-4.5c0.2-0.4,0.7-0.5,1.1-0.4c0.4,0.2,0.5,0.7,0.4,1.1
		L74,28.4C73.8,28.7,73.5,28.8,73.2,28.8z"/>
</g>
<g id="XMLID_2990_">
	<line fill="none" x1="96.2" y1="33.9" x2="100.9" y2="36.1"/>
	<path d="M100.9,36.9c-0.1,0-0.3,0-0.4-0.1l-4.8-2.2c-0.5-0.2-0.5-0.6-0.4-1.1c0.2-0.5,0.6-0.5,1.1-0.4l4.8,2.2
		c0.5,0.2,0.5,0.6,0.4,1.1C101.5,36.7,101.2,36.9,100.9,36.9z"/>
</g>
<g id="XMLID_2989_">
	<line fill="none" x1="42" y1="50.5" x2="49.1" y2="53.6"/>
	<path d="M49.3,54.4c-0.2,0-0.3,0-0.5,0l-7-3.1c-0.4-0.2-0.5-0.6-0.5-1c0.2-0.4,0.6-0.5,1-0.5l7,3.1c0.4,0.2,0.5,0.6,0.5,1
		C49.7,54.1,49.5,54.3,49.3,54.4z"/>
</g>
<g id="XMLID_2941_">
	<g id="XMLID_2942_">
		<g id="XMLID_2950_">
			
				<rect x="86.5" y="14.6" transform="matrix(-0.8633 -0.5047 0.5047 -0.8633 152.324 94.1861)" fill="#8DD4DF" width="4.8" height="23.7"/>
			<path fill="#020303" d="M85,38.8c-0.2,0-0.3,0-0.5-0.1l-4.2-2.5c-0.4-0.3-0.5-0.7-0.3-1.1l12-20.5c0.1-0.2,0.3-0.4,0.5-0.4
				c0.2-0.1,0.5,0,0.6,0.1l4.2,2.5c0.4,0.3,0.5,0.7,0.3,1.1L85.8,38.4c-0.1,0.2-0.3,0.4-0.5,0.4C85.2,38.7,85.1,38.8,85,38.8z
				 M81.9,35.1l2.8,1.6l11.2-19l-2.8-1.6L81.9,35.1z"/>
		</g>
		<g id="XMLID_2949_">
			
				<rect x="91.9" y="16.1" transform="matrix(-0.8633 -0.5047 0.5047 -0.8633 167.0567 79.6346)" fill="#FFFFFF" width="4.8" height="2.2"/>
			<path fill="#020303" d="M96.2,20.5l-5.7-3.3l1.9-3.3l5.7,3.3L96.2,20.5z M92.8,16.7l2.7,1.6l0.3-0.5L93,16.2L92.8,16.7z"/>
		</g>
		<g id="XMLID_2948_">
			<path fill="#56BEC3" d="M97,17.5L92.8,15l1.1-1.9c0.4-0.7,1.3-0.9,2-0.5l1.6,1c0.7,0.4,0.9,1.3,0.5,2L97,17.5z"/>
			<path d="M97,18.3c-0.2,0-0.3,0-0.5-0.1l-4.2-2.5c-0.4-0.3-0.5-0.7-0.3-1.1l1.1-1.9c0.3-0.5,0.8-0.9,1.4-1.1
				c0.6-0.2,1.2-0.1,1.7,0.3l1.6,1c1.1,0.6,1.5,2,0.8,3.1l-1,2C97.6,18.1,97.3,18.3,97,18.3z M93.9,14.7l2.8,1.6l0.7-1.2
				c0.2-0.3,0.1-0.7-0.3-0.9l-1.6-1c-0.2-0.1-0.4-0.1-0.5-0.1c-0.2,0-0.3,0.2-0.4,0.3L93.9,14.7z"/>
		</g>
		<g id="XMLID_2944_">
			<g>
				<path fill="#FFFFFF" d="M80.7,35.6L80.7,35.6l-0.4,4.8c0,0.3,0.3,0.5,0.5,0.4l4-2.7l0,0L80.7,35.6z"/>
			</g>
			<g>
				<path d="M80.7,41.7c-0.2,0-0.4-0.1-0.5-0.2c-0.4-0.2-0.6-0.6-0.6-1l0.5-5.4l0.8-0.4l4.9,2.9l-0.1,0.8l-0.4,0.3l-3.8,2.8
					C81,41.7,80.9,41.7,80.7,41.7z M81.5,37l-0.2,2.7l2.2-1.5L81.5,37z"/>
			</g>
		</g>
		<g id="XMLID_2943_">
			<path d="M81.5,40.7c-0.2,0-0.3,0-0.5-0.1l-0.6-0.4c-0.4-0.3-0.5-0.7-0.3-1.1c0.3-0.4,0.7-0.5,1.1-0.3l0.7,0.5
				c0.4,0.3,0.5,0.7,0.3,1.1C82.1,40.6,81.8,40.7,81.5,40.7z"/>
		</g>
	</g>
</g>
<g id="XMLID_773_">
	<g id="XMLID_2869_">
		<g id="XMLID_2932_">
			<path fill="#FFFFFF" d="M66.6,42.3l-18.8,2.6c-1,0.1-2-0.5-2.1-1.6l-2.1-15.7c-0.1-1,0.5-2,1.6-2.1L64,22.9c1-0.1,2,0.5,2.1,1.6
				l2.1,15.7C68.4,41.2,67.7,42.1,66.6,42.3z"/>
			<path d="M47.5,45.7c-0.5,0-1.2-0.2-1.6-0.5c-0.5-0.5-0.9-1.1-1-1.7l-2.1-15.7c-0.1-0.7,0.1-1.5,0.5-2c0.5-0.5,1.1-0.9,1.7-1
				l18.8-2.6c1.5-0.2,2.8,0.8,3,2.3L69,40.1c0.1,0.7-0.1,1.5-0.5,2c-0.5,0.5-1.1,0.9-1.7,1L48,45.7C47.8,45.6,47.7,45.7,47.5,45.7z
				 M64.3,23.7c-0.1,0-0.1,0-0.2,0l-18.8,2.6c-0.3,0-0.5,0.2-0.7,0.4c-0.2,0.2-0.3,0.5-0.2,0.7l2.1,15.7c0,0.3,0.2,0.5,0.4,0.7
				s0.5,0.3,0.7,0.2l18.8-2.6c0.3,0,0.5-0.2,0.7-0.4s0.3-0.5,0.2-0.7l-2-15.7C65.3,24,64.8,23.7,64.3,23.7z"/>
		</g>
		<g id="XMLID_2931_">
			<line fill="none" x1="44.1" y1="29.6" x2="66.3" y2="26.7"/>
			<path d="M44.1,30.4c-0.4,0-0.7-0.3-0.8-0.7c-0.1-0.5,0.3-0.8,0.7-0.9l22.1-2.9c0.5-0.1,0.8,0.3,0.9,0.7s-0.3,0.8-0.7,0.9l-22,2.9
				C44.2,30.4,44.2,30.4,44.1,30.4z"/>
		</g>
		<g id="XMLID_2893_">
			<g id="XMLID_2918_">
				<circle cx="45.6" cy="27.4" r="0.5"/>
			</g>
			<g id="XMLID_2917_">
				<circle cx="47.5" cy="27.1" r="0.5"/>
			</g>
			<g id="XMLID_2894_">
				<circle cx="49.3" cy="26.9" r="0.5"/>
			</g>
		</g>
	</g>
	<g id="XMLID_779_">
		<g id="XMLID_892_">
			<path d="M47.1,33.5c-0.4,0-0.7-0.3-0.8-0.7c-0.1-0.5,0.3-0.8,0.7-0.9l17-2.4c0.5-0.1,0.8,0.3,0.9,0.7s-0.3,0.8-0.7,0.9L47.1,33.5
				L47.1,33.5z"/>
		</g>
		<g id="XMLID_891_">
			<path d="M47.5,36.2c-0.4,0-0.7-0.3-0.8-0.7s0.3-0.8,0.7-0.9l16.9-2.3c0.5-0.1,0.8,0.3,0.9,0.7s-0.3,0.8-0.7,0.9L47.5,36.2
				L47.5,36.2z"/>
		</g>
		<g id="XMLID_789_">
			<path d="M47.9,39c-0.4,0-0.7-0.3-0.8-0.7c-0.1-0.5,0.3-0.8,0.7-0.9l17-2.3c0.5-0.1,0.8,0.3,0.9,0.7c0.1,0.5-0.3,0.8-0.7,0.9
				L47.9,39L47.9,39z"/>
		</g>
		<g id="XMLID_780_">
			<path d="M48.2,41.8c-0.4,0-0.7-0.3-0.8-0.7c-0.1-0.5,0.3-0.8,0.7-0.9l17-2.3c0.5-0.1,0.8,0.3,0.9,0.7c0.1,0.5-0.3,0.8-0.7,0.9
				L48.2,41.8C48.3,41.8,48.2,41.8,48.2,41.8z"/>
		</g>
	</g>
</g>
<g id="XMLID_916_">
	<g id="XMLID_915_">
		
			<circle id="XMLID_1100_" fill="#8DD4DF" stroke="#000000" stroke-width="2" stroke-miterlimit="10" cx="78.6" cy="75.4" r="21.4"/>
	</g>
	<path id="XMLID_917_" fill="#E2D374" stroke="#000000" stroke-width="2" stroke-linecap="round" stroke-miterlimit="10" d="
		M104.8,79.1c-1.5-0.8-3-1.6-4.7-2.5c-0.1,1.2-0.3,2.4-0.5,3.5c4.6,2.3,7.7,4.3,9.4,5.7c0.7,0.6,0.4,1.7-0.6,1.7
		c-2.3-0.1-6-0.6-11.2-1.8c-5.3-1.3-12.1-3.3-20.1-6.2c-8.1-3-14.5-5.9-19.4-8.3c-4.7-2.4-7.9-4.4-9.6-5.8c-0.7-0.6-0.4-1.7,0.6-1.7
		c2.3,0.1,5.9,0.6,10.9,1.7c0.5-1.1,1.1-2.1,1.8-3c-1.8-0.5-3.6-0.8-5.2-1.2c-10.7-2.1-12.7-0.5-13.4,1.3c-0.6,1.6-0.1,4.3,9.3,9.6
		c1.6,0.9,3.3,1.8,5.2,2.7c5.3,2.7,11.7,5.3,18.5,7.9c6.8,2.5,13.4,4.6,19.2,6c2,0.5,3.9,0.9,5.8,1.3c10.7,2.1,12.7,0.5,13.4-1.3
		C114.9,86.9,114.2,84.5,104.8,79.1z"/>
</g>
<g id="XMLID_20_">
	<ellipse fill="#FFFFFF" cx="114.5" cy="50.3" rx="9.5" ry="9.8"/>
	<path d="M114.5,61.2c-5.8,0-10.5-4.9-10.5-10.8c0-6,4.7-10.8,10.5-10.8S125,44.5,125,50.4C125,56.3,120.3,61.2,114.5,61.2z
		 M114.5,41.5c-4.7,0-8.5,4-8.5,8.8s3.8,8.8,8.5,8.8s8.5-4,8.5-8.8S119.2,41.5,114.5,41.5z"/>
</g>
<g id="XMLID_13_">
	<g id="XMLID_22_">
		<path d="M116.4,51.6c-0.7,0-1.3-0.3-1.8-0.8l0,0l-0.7-0.7c-1-1-1-2.6,0-3.6l1.9-2c0.9-1,2.6-1,3.6,0l0.7,0.7c1,1,1,2.6,0,3.6
			l-1.9,2C117.7,51.4,117.1,51.6,116.4,51.6L116.4,51.6z M116.1,49.5c0.1,0.1,0.2,0.1,0.3,0.1l0,0c0.1,0,0.2-0.1,0.3-0.1l1.9-2
			c0.2-0.2,0.2-0.6,0-0.8l-0.7-0.7c-0.2-0.2-0.5-0.2-0.7,0l-1.9,2c-0.2,0.2-0.2,0.6,0,0.8L116.1,49.5z"/>
	</g>
	<g id="XMLID_28_">
		<path d="M111.4,56.9L111.4,56.9c-0.7,0-1.3-0.3-1.8-0.8l-0.7-0.7c-1-1-1-2.6,0-3.6l1.9-2c0.9-1,2.6-1,3.6,0l0.7,0.7
			c1,1,1,2.6,0,3.6l-1.9,2C112.7,56.6,112.1,56.9,111.4,56.9z M112.7,51c-0.1,0-0.2,0.1-0.3,0.1l-1.9,2c-0.2,0.2-0.2,0.6,0,0.8
			l0.7,0.7l0,0c0.1,0.1,0.2,0.1,0.3,0.1l0,0c0.1,0,0.2-0.1,0.3-0.1l1.9-2c0.2-0.2,0.2-0.6,0-0.8l-0.7-0.7
			C112.9,51.1,112.8,51,112.7,51z"/>
	</g>
	<g id="XMLID_27_">
		<path d="M112.3,52.7L112.3,52.7c-0.2-0.3-0.2-0.7,0-0.9l3.3-3.4c0.2-0.3,0.6-0.3,0.9,0l0,0c0.2,0.3,0.2,0.7,0,0.9l-3.3,3.4
			C112.9,52.9,112.5,52.9,112.3,52.7z"/>
	</g>
</g>
<ellipse fill="#D9D9DB" cx="78.5" cy="110.5" rx="18.6" ry="2.5"/>
</svg>
