<?xml version="1.0" encoding="utf-8"?>
<!-- Generator: Adobe Illustrator 19.0.0, SVG Export Plug-In . SVG Version: 6.00 Build 0)  -->
<svg version="1.2" baseProfile="tiny" id="Layer_1" xmlns="http://www.w3.org/2000/svg" xmlns:xlink="http://www.w3.org/1999/xlink"
	 x="0px" y="0px" width="538.9px" height="231.9px" viewBox="169 -15.9 538.9 231.9" xml:space="preserve">
<g id="XMLID_1_">
	<g id="XMLID_916_">
		<path id="XMLID_11_" fill="#8DD4DF" d="M596.5,216c0.2-3.4,0.3-6.9,0.3-10.4c0-87.7-71.1-158.8-158.8-158.8
			s-158.8,71.1-158.8,158.8c0,3.5,0.1,6.9,0.3,10.4H596.5z"/>
		<path id="XMLID_7_" d="M281.5,216c-0.2-3.4-0.4-6.9-0.4-10.4c0-86.5,70.4-156.8,156.8-156.8c86.5,0,156.8,70.4,156.8,156.8
			c0,3.5-0.1,6.9-0.4,10.4h4c0.2-3.4,0.3-6.9,0.3-10.4c0-88.7-72.1-160.8-160.8-160.8S277,116.9,277,205.6c0,3.5,0.1,6.9,0.3,10.4
			H281.5z"/>
		<g id="XMLID_917_">
			<g id="XMLID_12_">
				<path id="XMLID_17_" fill="#E2D374" d="M375.4,216c-36.5-15-67.2-29.2-92.5-41.5c-34.9-17.8-58.6-32.7-71.3-43
					c-5.2-4.5-3-12.6,4.5-12.6c17.1,0.7,43.8,4.5,80.9,12.6c3.7-8.2,8.2-15.6,13.4-22.3c-13.4-3.7-26.7-5.9-38.6-8.9
					c-79.4-15.6-94.3-3.7-99.5,9.6c-4.5,11.9-0.7,31.9,69,71.3c11.9,6.7,24.5,13.4,38.6,20c9.8,5,20.1,9.9,30.8,14.8H375.4z"/>
			</g>
			<g id="XMLID_6_">
				<path id="XMLID_18_" d="M305.9,216h9.6c-12-5.4-23.6-11-34.7-16.6c-12.6-6-25.2-12.5-38.5-20c-77.5-43.7-70.5-62.6-68.1-68.8
					c3.2-8.3,10.9-15.8,37.3-15.8c14,0,33.2,2.1,59.9,7.3c5,1.2,10.1,2.3,15.5,3.5c6.6,1.4,13.4,2.8,20.1,4.6
					c-4.2,5.7-7.9,12.1-11.1,18.8c-41.8-9.1-66.4-11.7-79.8-12.3c-4.1,0-7.4,2.2-8.7,5.7c-1.3,3.6-0.2,7.8,3,10.5
					c13.8,11.4,39.3,26.8,71.6,43.3c29,14.2,58.1,27.3,88.1,39.7h10.6c-33.1-13.4-65.1-27.8-96.9-43.3
					c-32.1-16.4-57.3-31.6-70.9-42.8c-1.9-1.6-2.6-4-1.8-6c0.7-1.9,2.5-3.1,4.9-3.1c13.3,0.6,38.1,3.2,80.6,12.6l1.6,0.3l0.7-1.5
					c3.6-8,8-15.3,13.1-21.9l1.8-2.4l-2.9-0.8c-7.9-2.2-15.7-3.8-23.2-5.5c-5.4-1.2-10.5-2.2-15.4-3.5h-0.1
					c-79.6-15.6-95.9-4-101.7,10.9c-4.6,12.1-2.3,33,69.9,73.7c13.4,7.5,26,14.1,38.7,20.1C287.7,207.4,296.7,211.7,305.9,216z"/>
			</g>
		</g>
	</g>
	<g id="XMLID_2_">
		
			<ellipse id="XMLID_29_" transform="matrix(0.2476 -0.9689 0.9689 0.2476 297.9955 546.1192)" fill="#529299" stroke="#000000" stroke-width="4" stroke-miterlimit="10" cx="500.6" cy="81.2" rx="5.5" ry="12.5"/>
		<g id="XMLID_23_">
			<g id="XMLID_25_">
				<path id="XMLID_8_" fill="#8DD4DF" d="M600.4,63.3c0.7,1.4,0,2.3-1.6,1.9l-85.3-20.8c-1.5-0.4-2.4-1.9-2.1-3.4l11.8-46
					c0.4-1.5,1.9-2.4,3.5-2.1L612,13.7c1.5,0.4,1.7,1.4,0.5,2.4l-23.1,17c-1.3,0.9-1.7,2.8-1.1,4.2L600.4,63.3z"/>
				<path id="XMLID_5_" fill="none" stroke="#000000" stroke-width="4" stroke-miterlimit="10" d="M600.4,63.3
					c0.7,1.4,0,2.3-1.6,1.9l-85.3-20.8c-1.5-0.4-2.4-1.9-2.1-3.4l11.8-46c0.4-1.5,1.9-2.4,3.5-2.1L612,13.7c1.5,0.4,1.7,1.4,0.5,2.4
					l-23.1,17c-1.3,0.9-1.7,2.8-1.1,4.2L600.4,63.3z"/>
			</g>
			<path id="XMLID_24_" fill="#CE5D5D" stroke="#000000" stroke-width="4" stroke-miterlimit="10" d="M500.4,81.4l0.4,0.1
				c1.4,0.4,2.9-0.5,3.3-2l23-90c0.4-1.4-0.5-2.9-2-3.3l-0.4-0.1c-1.4-0.4-2.9,0.5-3.3,2l-23,90C498.1,79.5,499,81,500.4,81.4z"/>
		</g>
		<g>
			<path d="M536.1,30.2l-3.9-0.9c-0.5-0.1-0.9-0.4-1.2-0.8c-0.3-0.4-0.4-0.8-0.3-1.3l3-13.1c0.1-0.5,0.4-0.8,0.8-1.1
				c0.4-0.2,0.9-0.3,1.4-0.2l4,0.9c0.9,0.2,1.6,0.5,2.2,0.9c0.6,0.4,1.1,0.9,1.4,1.4c0.3,0.5,0.6,1.1,0.7,1.7
				c0.1,0.6,0.1,1.2-0.1,1.8c-0.2,0.8-0.6,1.4-1.2,1.9c-0.6,0.4-1.3,0.7-2,0.9c0.3,0.2,0.6,0.5,0.9,0.8c0.3,0.3,0.6,0.6,0.8,1
				c0.2,0.4,0.3,0.8,0.4,1.2c0.1,0.4,0.1,0.9-0.1,1.4c-0.2,0.7-0.4,1.3-0.8,1.8c-0.4,0.5-0.9,1-1.5,1.3c-0.6,0.3-1.3,0.5-2.1,0.6
				C537.8,30.5,537,30.5,536.1,30.2z M538,23.3l-2.8-0.6l-0.9,4.1l2.6,0.6c0.8,0.2,1.4,0.1,1.9-0.1s0.8-0.7,0.9-1.3
				c0.2-0.7,0.1-1.2-0.3-1.7S538.7,23.4,538,23.3z M535.9,19.7l2.7,0.6c0.2,0,0.4,0.1,0.6,0c0.2,0,0.4-0.1,0.7-0.2
				c0.2-0.1,0.4-0.3,0.6-0.5c0.2-0.2,0.3-0.5,0.3-0.8c0.1-0.5,0.1-0.9-0.1-1.3c-0.2-0.4-0.6-0.7-1.2-0.8l-2.9-0.6L535.9,19.7z"/>
		</g>
		<g>
			<path d="M546.3,32.7c-0.2-0.1-0.5-0.1-0.7-0.3c-0.3-0.1-0.5-0.3-0.6-0.5c-0.2-0.2-0.3-0.6-0.4-1s0-0.9,0.1-1.5l2.9-12.8
				c0.1-0.4,0.3-0.7,0.7-0.9c0.4-0.2,0.8-0.3,1.2-0.2c0.5,0.1,0.8,0.3,1.1,0.7c0.2,0.4,0.3,0.7,0.2,1.1l-2.8,12.6
				c-0.1,0.3-0.1,0.4-0.1,0.5c0,0.1,0.1,0.3,0.2,0.5c0.1,0.2,0.2,0.3,0.2,0.4c0.1,0.1,0.1,0.3,0,0.5c-0.1,0.4-0.3,0.7-0.7,0.8
				C547.3,32.8,546.8,32.8,546.3,32.7z"/>
		</g>
		<g>
			<path d="M554.9,34.7c-0.8-0.2-1.5-0.5-2.1-0.8c-0.6-0.4-1-0.8-1.4-1.3c-0.3-0.5-0.6-1-0.7-1.6c-0.1-0.6-0.1-1.2,0.1-1.8l0.8-3.5
				c0.1-0.6,0.4-1.2,0.7-1.6c0.3-0.5,0.8-0.9,1.3-1.2c0.5-0.3,1.1-0.5,1.8-0.6c0.7-0.1,1.4,0,2.3,0.2s1.5,0.5,2.1,0.8
				c0.6,0.4,1,0.8,1.4,1.3s0.6,1,0.7,1.6c0.1,0.6,0.1,1.2-0.1,1.8l-0.8,3.5c-0.1,0.6-0.4,1.2-0.7,1.6c-0.3,0.5-0.8,0.9-1.3,1.2
				c-0.5,0.3-1.1,0.5-1.8,0.6C556.5,34.9,555.7,34.9,554.9,34.7z M555.5,31.9c0.6,0.1,1.1,0.1,1.5-0.1c0.4-0.2,0.6-0.6,0.7-1.1
				l0.8-3.5c0.1-0.5,0-0.9-0.2-1.3c-0.3-0.4-0.7-0.6-1.3-0.7c-0.6-0.1-1.1-0.1-1.5,0.1s-0.6,0.6-0.7,1l-0.8,3.5
				c-0.1,0.5,0,0.9,0.2,1.3S554.9,31.8,555.5,31.9z"/>
		</g>
		<g>
			<path d="M561.5,38c0.1-0.5,0.3-0.9,0.6-1.2s0.8-0.7,1.4-1c-0.1-0.4-0.2-0.7-0.2-1.1c0-0.4,0-0.7,0.1-0.9c0.1-0.3,0.2-0.5,0.3-0.8
				c0.2-0.3,0.4-0.5,0.7-0.8c-0.8-1.1-1.1-2.3-0.8-3.6c0.1-0.6,0.4-1.2,0.7-1.7c0.3-0.5,0.7-0.9,1.2-1.2c0.5-0.3,1-0.5,1.7-0.6
				s1.3-0.1,2.1,0.1c0.6,0.1,1.1,0.3,1.6,0.6c0.5,0.3,0.9,0.6,1.4,0.9c0.4-0.4,0.8-0.6,1.2-0.7c0.4-0.1,0.8-0.2,1.1-0.1
				c0.4,0.1,0.7,0.3,1,0.6c0.2,0.3,0.3,0.7,0.2,1.1c0,0.2-0.1,0.4-0.2,0.5c-0.1,0.1-0.2,0.2-0.3,0.3c-0.5,0.3-0.8,0.5-1,0.6
				c-0.2,0.2-0.3,0.4-0.4,0.7l-0.3,1.3c-0.1,0.6-0.4,1.1-0.7,1.6c-0.3,0.5-0.7,0.8-1.2,1.1c-0.5,0.3-1.1,0.5-1.8,0.5
				c-0.7,0.1-1.5,0-2.3-0.2c-0.2,0-0.4-0.1-0.6-0.2c-0.2-0.1-0.4-0.1-0.6-0.2c-0.1,0.1-0.2,0.2-0.2,0.3c0,0.1-0.1,0.1-0.1,0.2
				c-0.1,0.3,0,0.6,0.1,0.7c0.1,0.1,0.3,0.2,0.4,0.2l1,0.2c0.8,0.2,1.5,0.4,2.1,0.7c0.6,0.3,1.1,0.6,1.6,1c0.4,0.4,0.7,0.9,0.9,1.4
				c0.2,0.5,0.2,1.1,0,1.7c-0.1,0.6-0.4,1.2-0.8,1.6c-0.4,0.4-0.9,0.8-1.4,1c-0.6,0.2-1.2,0.4-1.9,0.4c-0.7,0-1.5,0-2.3-0.2
				c-0.8-0.2-1.4-0.4-2-0.7s-1.1-0.7-1.5-1.1c-0.4-0.4-0.6-0.9-0.8-1.4C561.4,39.1,561.4,38.6,561.5,38z M567.1,38l-1.7-0.4
				c-0.2,0.1-0.3,0.3-0.4,0.4c-0.1,0.1-0.2,0.3-0.2,0.5c-0.1,0.4,0,0.8,0.3,1.1s0.8,0.6,1.4,0.7c0.7,0.2,1.2,0.2,1.7,0
				c0.5-0.1,0.7-0.4,0.8-0.8c0.1-0.4,0-0.7-0.3-0.9C568.4,38.4,567.9,38.2,567.1,38z M570.9,28.7c-0.3-0.2-0.6-0.4-0.8-0.5
				c-0.3-0.1-0.5-0.2-0.8-0.3c-0.6-0.1-1.1-0.1-1.5,0.2c-0.4,0.3-0.7,0.7-0.8,1.3c-0.1,0.6-0.1,1,0.1,1.4c0.2,0.4,0.6,0.7,1.3,0.8
				c0.6,0.1,1.1,0.1,1.4-0.2c0.3-0.2,0.6-0.6,0.7-1.2L570.9,28.7z"/>
		</g>
	</g>
</g>
</svg>
