<svg xmlns="http://www.w3.org/2000/svg" width="34" height="34" viewBox="0 0 34 34">
  <g id="assistive_grey" transform="translate(-6 -6)">
    <g id="Icon" transform="translate(6 6)">
      <path id="Shape" d="M13.812,32.141a1.859,1.859,0,0,1,1.859-1.859,3.457,3.457,0,0,0,3.453-3.453V26.8c.066-4.868,4.781-4.546,4.781-9.537a7.969,7.969,0,1,0-15.937,0,1.859,1.859,0,0,1-3.719,0,11.687,11.687,0,0,1,23.375,0c0,6.374-4.741,7.291-4.781,9.578A7.18,7.18,0,0,1,15.672,34,1.859,1.859,0,0,1,13.812,32.141ZM0,31.875A2.125,2.125,0,1,1,2.125,34,2.125,2.125,0,0,1,0,31.875ZM2.592,26.1l2.254-2.254,5.313,5.313L7.9,31.408ZM8.5,23.375A2.125,2.125,0,1,1,10.625,25.5,2.126,2.126,0,0,1,8.5,23.375Zm21.782-6.108c0-.076,0-.149,0-.224v-.012a14.427,14.427,0,0,0-9.7-13.412A1.859,1.859,0,1,1,21.781.1,18.153,18.153,0,0,1,34,16.965c0,.1,0,.2,0,.3a1.859,1.859,0,0,1-3.719,0Zm-12.75,0a1.594,1.594,0,0,0-3.188,0,1.859,1.859,0,1,1-3.718,0,5.312,5.312,0,1,1,10.625,0,1.859,1.859,0,1,1-3.719,0Z" fill="#9c9c9c"/>
    </g>
  </g>
</svg>
