<svg xmlns="http://www.w3.org/2000/svg" width="40" height="24.348" viewBox="0 0 40 24.348">
  <g id="bicycles_colored" transform="translate(-3 -11)">
    <g id="Icon" transform="translate(3 11)">
      <path id="Shape" d="M31.92,24.348a8.142,8.142,0,0,1-5.339-14.086l-.933-1.526-5.373,8.8A1.493,1.493,0,0,1,19,18.261H15.748A8.026,8.026,0,0,1,8,24.348,8.116,8.116,0,0,1,8.02,8.116a7.855,7.855,0,0,1,2.687.477L12.546,5.58H9.5A1.51,1.51,0,0,1,8,4.086a1.538,1.538,0,0,1,1.533-1.55H15a1.007,1.007,0,0,1,1,1.014V4.565h7.1l-.931-1.521H19a1.008,1.008,0,0,1-1-1.015V1.014A1.008,1.008,0,0,1,19,0h4a1.5,1.5,0,0,1,1.274.719l4.855,7.935a7.88,7.88,0,0,1,2.9-.538A8.117,8.117,0,0,1,32,24.348Z"/>
    </g>
  </g>
</svg>
