<svg xmlns="http://www.w3.org/2000/svg" width="42" height="29.748" viewBox="0 0 42 29.748">
  <g id="books_stationary_colored" transform="translate(-2 -8.112)">
    <g id="Icon" transform="translate(2 8)">
      <path id="Combined_Shape" data-name="Combined Shape" d="M0,29.36a.5.5,0,0,0,.611.488l17.9-4.059A.5.5,0,0,0,18.9,25.3V.613a.5.5,0,0,0-.611-.488L.389,4.184A.5.5,0,0,0,0,4.671Z" transform="translate(23.1 0)" fill="#cf2028"/>
      <path id="Path_41_Copy" data-name="Path 41 Copy" d="M18.9,29.36a.5.5,0,0,1-.611.488L.389,25.789A.5.5,0,0,1,0,25.3V.613A.5.5,0,0,1,.611.125l17.9,4.059a.5.5,0,0,1,.389.488Z" transform="translate(0 0)"/>
    </g>
  </g>
</svg>
