<svg xmlns="http://www.w3.org/2000/svg" width="29.091" height="40" viewBox="0 0 29.091 40">
  <g id="bulletin_grey" transform="translate(-8 -3)">
    <g id="Icon" transform="translate(8 3)">
      <path id="Combined_Shape" data-name="Combined Shape" d="M27.091,36.364H2a2,2,0,0,1-2-2V2A2,2,0,0,1,2,0H7.273V.909A2.73,2.73,0,0,0,10,3.636h9.091A2.73,2.73,0,0,0,21.818.909V0h5.273a2,2,0,0,1,2,2V34.364A2,2,0,0,1,27.091,36.364Z" transform="translate(0 3.636)" fill="#9c9c9c"/>
      <path id="Combined_Shape-2" data-name="Combined Shape" d="M.5,5.455a.5.5,0,0,1-.5-.5V2.318a.5.5,0,0,1,.5-.5H3.636a1.818,1.818,0,0,1,3.637,0h3.136a.5.5,0,0,1,.5.5V4.955a.5.5,0,0,1-.5.5Z" transform="translate(9.091)" fill="#d1d1d1"/>
    </g>
  </g>
</svg>
