<svg xmlns="http://www.w3.org/2000/svg" width="38" height="38" viewBox="0 0 38 38">
  <g id="business_grey" transform="translate(-4 -4)">
    <g id="Icon" transform="translate(4 4)">
      <path id="Path_95" data-name="Path 95" d="M4.222,33.778H35.889a2.111,2.111,0,0,1,0,4.222H2.111A2.111,2.111,0,0,1,0,35.889V2.111a2.111,2.111,0,0,1,4.222,0Z" fill="#9c9c9c"/>
      <path id="Path_97" data-name="Path 97" d="M3.651,17.277A2.111,2.111,0,0,1,.571,14.39L8.488,5.945a2.111,2.111,0,0,1,2.91-.162l6.248,5.332L25.787.8A2.111,2.111,0,1,1,29.1,3.419L19.6,15.453a2.111,2.111,0,0,1-3.027.3L10.19,10.3Z" transform="translate(8.444 7.389)" fill="#d1d1d1"/>
    </g>
  </g>
</svg>
