<svg xmlns="http://www.w3.org/2000/svg" width="38" height="38" viewBox="0 0 38 38">
  <g id="car_accessories_colored" transform="translate(-3.75 -3.75)">
    <path id="Icon" d="M5.565,32.435a19,19,0,0,1,26.87-26.87,19,19,0,0,1-26.87,26.87ZM19,34.9a15.845,15.845,0,0,0,4.684-.7l-3.331-7.952a7.414,7.414,0,0,1-2.647.011l-3.267,7.978A15.846,15.846,0,0,0,19,34.9Zm-7.43-1.846,3.266-7.978a7.428,7.428,0,0,1-1.877-1.862l-7.951,3.33A16.01,16.01,0,0,0,11.57,33.053Zm14.974-.061a16.013,16.013,0,0,0,6.509-6.562l-7.978-3.267a7.427,7.427,0,0,1-1.862,1.877ZM3.1,19a15.853,15.853,0,0,0,.7,4.684l7.951-3.331a7.415,7.415,0,0,1-.011-2.647L3.769,14.439A15.854,15.854,0,0,0,3.1,19Zm31.13,4.561a15.935,15.935,0,0,0-.038-9.245l-7.951,3.331a7.414,7.414,0,0,1,.011,2.647ZM14.735,19A4.265,4.265,0,1,0,19,14.735,4.27,4.27,0,0,0,14.735,19Zm-1.81-4.163a7.429,7.429,0,0,1,1.863-1.878l-3.331-7.95A16.013,16.013,0,0,0,4.948,11.57Zm12.117-.049,7.951-3.331A16.013,16.013,0,0,0,26.43,4.948l-3.267,7.977A7.428,7.428,0,0,1,25.041,14.787Zm-7.394-3.03a7.415,7.415,0,0,1,2.647-.011l3.267-7.977a15.935,15.935,0,0,0-9.245.038Z" transform="translate(3.75 3.75)" fill="#cf2028"/>
  </g>
</svg>
