<svg xmlns="http://www.w3.org/2000/svg" width="38.683" height="38.095" viewBox="0 0 38.683 38.095">
  <g id="deals_grey" transform="translate(-3 -4)">
    <g id="Icon" transform="translate(3 4)">
      <path id="Combined_Shape" data-name="Combined Shape" d="M19.341,34.844,12.624,38.1,9.568,31.287,2.333,29.46l2.035-7.18L0,16.229l6.174-4.192.543-7.443,7.424.757L19.341,0l5.2,5.352,7.424-.757.543,7.443,6.174,4.192L34.315,22.28l2.035,7.18-7.235,1.827L26.059,38.1Z" transform="translate(0)" fill="#9c9c9c"/>
      <path id="Stroke_1" data-name="Stroke 1" d="M10.911,0,0,11.617l2.567,2.567L13.478,2.567Z" transform="translate(12.41 13.093)" fill="#d1d1d1"/>
      <path id="Fill_2" data-name="Fill 2" d="M6.547,3.273A3.273,3.273,0,1,1,3.273,0,3.272,3.272,0,0,1,6.547,3.273" transform="translate(10.613 10.911)" fill="#d1d1d1"/>
      <path id="Fill_4" data-name="Fill 4" d="M3.273,6.547A3.273,3.273,0,1,1,6.547,3.273,3.274,3.274,0,0,1,3.273,6.547Z" transform="translate(21.524 21.822)" fill="#d1d1d1"/>
    </g>
  </g>
</svg>
