<svg xmlns="http://www.w3.org/2000/svg" width="33.778" height="38" viewBox="0 0 33.778 38">
  <g id="entertainment_colored" transform="translate(-6 -4)">
    <g id="Icon" transform="translate(6 4)">
      <path id="Combined_Shape" data-name="Combined Shape" d="M31.778,38H2a2,2,0,0,1-2-2V2A2,2,0,0,1,2,0H31.778a2,2,0,0,1,2,2V36A2,2,0,0,1,31.778,38Zm-3.834-8.444a.5.5,0,0,0-.5.5v3.222a.5.5,0,0,0,.5.5h3.223a.5.5,0,0,0,.5-.5V30.056a.5.5,0,0,0-.5-.5Zm-25.333,0a.5.5,0,0,0-.5.5v3.222a.5.5,0,0,0,.5.5H5.833a.5.5,0,0,0,.5-.5V30.056a.5.5,0,0,0-.5-.5Zm25.333-8.445a.5.5,0,0,0-.5.5v3.223a.5.5,0,0,0,.5.5h3.223a.5.5,0,0,0,.5-.5V21.611a.5.5,0,0,0-.5-.5Zm-25.333,0a.5.5,0,0,0-.5.5v3.223a.5.5,0,0,0,.5.5H5.833a.5.5,0,0,0,.5-.5V21.611a.5.5,0,0,0-.5-.5Zm25.333-8.445a.5.5,0,0,0-.5.5v3.222a.5.5,0,0,0,.5.5h3.223a.5.5,0,0,0,.5-.5V13.167a.5.5,0,0,0-.5-.5Zm-25.333,0a.5.5,0,0,0-.5.5v3.222a.5.5,0,0,0,.5.5H5.833a.5.5,0,0,0,.5-.5V13.167a.5.5,0,0,0-.5-.5ZM27.944,4.222a.5.5,0,0,0-.5.5V7.944a.5.5,0,0,0,.5.5h3.223a.5.5,0,0,0,.5-.5V4.722a.5.5,0,0,0-.5-.5Zm-25.333,0a.5.5,0,0,0-.5.5V7.944a.5.5,0,0,0,.5.5H5.833a.5.5,0,0,0,.5-.5V4.722a.5.5,0,0,0-.5-.5Z" fill="#cf2028"/>
      <path id="Path_10" data-name="Path 10" d="M0,9.65a.5.5,0,0,0,.782.413l7.037-4.81a.5.5,0,0,0,0-.825L.783-.413A.5.5,0,0,0,0,0Z" transform="translate(13.87 14.962)"/>
    </g>
  </g>
</svg>
