<svg xmlns="http://www.w3.org/2000/svg" width="36.073" height="39.195" viewBox="0 0 36.073 39.195">
  <g id="everything_else_colored" transform="translate(-4.909 -3.417)">
    <g id="Icon" transform="translate(4 3)">
      <path id="Shape" d="M18.013,29.4a1.5,1.5,0,0,0,1.868,0L34.442,17.8l1.971-1.561a1.5,1.5,0,0,0,0-2.35L19.881.743a1.5,1.5,0,0,0-1.867,0L1.475,13.9a1.5,1.5,0,0,0,0,2.347L3.432,17.8Z" transform="translate(0 0)" fill="#cf2028"/>
      <path id="Path" d="M18.029,10.823a1.5,1.5,0,0,1-1.867,0L2.769.176A1.5,1.5,0,0,0,.65.432l-.5.65A1.5,1.5,0,0,0,.42,3.192L16.2,15.263a1.5,1.5,0,0,0,1.822,0L33.811,3.193a1.5,1.5,0,0,0,.274-2.111L33.563.408A1.5,1.5,0,0,0,31.444.154Z" transform="translate(1.831 24.041)"/>
    </g>
  </g>
</svg>
