<svg xmlns="http://www.w3.org/2000/svg" width="20.558" height="38" viewBox="0 0 20.558 38">
  <g id="finance_grey" transform="translate(-12 -4)">
    <g id="Icon" transform="translate(12 4)">
      <rect id="Rectangle" width="4" height="8" rx="1" transform="translate(8.43)" fill="#9c9c9c"/>
      <rect id="Rectangle_Copy_3" data-name="Rectangle Copy 3" width="4" height="10" rx="1" transform="translate(8.43 28)" fill="#9c9c9c"/>
      <path id="Combined_Shape" data-name="Combined Shape" d="M16.416,7.676a5.866,5.866,0,0,0-2.185-1.691,6.164,6.164,0,0,0-2.6-.627,7.749,7.749,0,0,0-1.311.114,3.385,3.385,0,0,0-1.2.437,2.959,2.959,0,0,0-.893.836,2.226,2.226,0,0,0-.361,1.311A2.114,2.114,0,0,0,8.151,9.2a2.537,2.537,0,0,0,.836.8,7.451,7.451,0,0,0,1.311.627q.76.285,1.71.589,1.368.456,2.85,1.007a10.659,10.659,0,0,1,2.7,1.463,7.68,7.68,0,0,1,2.014,2.261,6.512,6.512,0,0,1,.8,3.363,8.786,8.786,0,0,1-.855,4.009,8,8,0,0,1-2.3,2.793,9.851,9.851,0,0,1-3.306,1.634,13.9,13.9,0,0,1-3.838.532,15.848,15.848,0,0,1-5.586-1.007A11.835,11.835,0,0,1,0,24.4l4.256-4.332a7.864,7.864,0,0,0,2.6,2.033,7.065,7.065,0,0,0,3.211.817,6.462,6.462,0,0,0,1.406-.152,3.507,3.507,0,0,0,1.2-.494,2.473,2.473,0,0,0,.817-.912,2.871,2.871,0,0,0,.3-1.368,2.165,2.165,0,0,0-.38-1.292,3.712,3.712,0,0,0-1.083-.969,8.723,8.723,0,0,0-1.748-.8q-1.045-.361-2.375-.779a22.7,22.7,0,0,1-2.527-.988,8.458,8.458,0,0,1-2.2-1.463,6.776,6.776,0,0,1-1.558-2.166,7.343,7.343,0,0,1-.589-3.1A7.615,7.615,0,0,1,2.242,4.6,7.928,7.928,0,0,1,4.636,1.976,10.284,10.284,0,0,1,7.98.475,15.162,15.162,0,0,1,11.742,0,13.967,13.967,0,0,1,16.4.836a11.985,11.985,0,0,1,4.161,2.47Z" transform="translate(0 4.412)" fill="#d1d1d1"/>
    </g>
  </g>
</svg>
