<svg xmlns="http://www.w3.org/2000/svg" width="29.091" height="39.748" viewBox="0 0 29.091 39.748">
  <g id="furniture_colored" transform="translate(-8 -3)">
    <g id="Icon" transform="translate(8 3)">
      <path id="Combined_Shape" data-name="Combined Shape" d="M2.138,14.631l-1.58-.424a1,1,0,0,1-.707-1.225L3.18.558A1,1,0,0,1,4.4-.149l1.58.424A1,1,0,0,1,6.692,1.5L3.363,13.924a1,1,0,0,1-1.225.707Zm14.454-.762L13.8,3.447a1,1,0,0,1,.707-1.225L16.088,1.8a1,1,0,0,1,1.225.707l2.792,10.421a1,1,0,0,1-.707,1.225l-1.581.423a1,1,0,0,1-1.225-.707Z" transform="translate(4.56 25.083)"/>
      <path id="Combined_Shape-2" data-name="Combined Shape" d="M1.5,29.091a1.5,1.5,0,0,1-1.5-1.5V25.136a1.5,1.5,0,0,1,1.5-1.5H27.591a1.5,1.5,0,0,1,1.5,1.5v2.455a1.5,1.5,0,0,1-1.5,1.5Zm4.378-7.273a.5.5,0,0,1-.493-.418L2.206,2.329A2,2,0,0,1,4.179,0H24.912a2,2,0,0,1,1.973,2.329L23.706,21.4a.5.5,0,0,1-.493.418Z" fill="#cf2028"/>
    </g>
  </g>
</svg>
