<svg xmlns="http://www.w3.org/2000/svg" width="29.833" height="40" viewBox="0 0 29.833 40">
  <g id="health_beauty_grey" transform="translate(-7.708 -3)">
    <g id="Icon" transform="translate(8 3)">
      <rect id="Rectangle" width="19.048" height="5.714" rx="1" transform="translate(5.101)" fill="#9c9c9c"/>
      <path id="Combined_Shape" data-name="Combined Shape" d="M26.079,30.476H3.17a2,2,0,0,1-2-1.875L-.282,5.312A5,5,0,0,1,4.709,0H24.54a5,5,0,0,1,4.99,5.312L28.076,28.6A2,2,0,0,1,26.079,30.476ZM7.1,5.714a2,2,0,0,0-2,2v5.524a2,2,0,0,0,2,2H22.148a2,2,0,0,0,2-2V7.714a2,2,0,0,0-2-2Z" transform="translate(0 9.524)" fill="#d1d1d1"/>
    </g>
  </g>
</svg>
