<svg xmlns="http://www.w3.org/2000/svg" width="38.001" height="37.96" viewBox="0 0 38.001 37.96">
  <g id="jobs_grey" transform="translate(-4 -4)">
    <path id="Icon" d="M32.243,37.007,21.442,24.3A12.886,12.886,0,0,1,13.5,27a13.5,13.5,0,0,1-9.55-23.05,13.492,13.492,0,0,1,19.1.02A13.654,13.654,0,0,1,27,13.659,13.225,13.225,0,0,1,24.3,21.6L37.007,32.243a2.5,2.5,0,0,1,.953,2.382,3.474,3.474,0,0,1-.953,2.382,3.245,3.245,0,0,1-2.382.953A3.473,3.473,0,0,1,32.243,37.007ZM17.472,10.324v6.353a.752.752,0,0,0,.794.795h1.588a2.445,2.445,0,0,0,2.382-2.383A2.034,2.034,0,0,0,21.6,13.5a2.036,2.036,0,0,0,.635-1.589A2.445,2.445,0,0,0,19.854,9.53H18.266A.751.751,0,0,0,17.472,10.324Zm-6.354,1.589v3.176a2.383,2.383,0,1,0,4.766,0V11.912a2.383,2.383,0,0,0-4.766,0ZM4.765,15.089a2.445,2.445,0,0,0,2.382,2.383A2.445,2.445,0,0,0,9.53,15.089V10.324a.752.752,0,0,0-.795-.794.751.751,0,0,0-.794.794v4.765a.753.753,0,0,1-.795.795.752.752,0,0,1-.794-.795.751.751,0,0,0-.794-.794A.752.752,0,0,0,4.765,15.089Zm14.295.795V14.295h.795a.794.794,0,0,1,0,1.589Zm-6.353-.795V11.912a.794.794,0,1,1,1.589,0v3.176a.794.794,0,1,1-1.589,0Zm6.353-2.382V11.118h.795a.794.794,0,0,1,0,1.589Z" transform="translate(4 4)" fill="#9c9c9c"/>
  </g>
</svg>
