<svg xmlns="http://www.w3.org/2000/svg" xmlns:xlink="http://www.w3.org/1999/xlink" width="32" height="40" viewBox="0 0 32 40">
  <defs>
    <clipPath id="clip-path">
      <path id="Icon" d="M30,40H6a5.986,5.986,0,0,1-4.31-1.729A6.013,6.013,0,0,1,0,34V6A6.014,6.014,0,0,1,1.69,1.729,5.986,5.986,0,0,1,6,0H30a1.821,1.821,0,0,1,2,2V32H7.667A1.668,1.668,0,0,0,6,33.666v.667A1.669,1.669,0,0,0,7.667,36H32v2A1.821,1.821,0,0,1,30,40Z" transform="translate(7 3)" fill="#cf2028"/>
    </clipPath>
  </defs>
  <g id="learning_colored" transform="translate(-7 -3)">
    <path id="Icon-2" data-name="Icon" d="M30,40H6a5.986,5.986,0,0,1-4.31-1.729A6.013,6.013,0,0,1,0,34V6A6.014,6.014,0,0,1,1.69,1.729,5.986,5.986,0,0,1,6,0H30a1.821,1.821,0,0,1,2,2V32H7.667A1.668,1.668,0,0,0,6,33.666v.667A1.669,1.669,0,0,0,7.667,36H32v2A1.821,1.821,0,0,1,30,40Z" transform="translate(7 3)" fill="#cf2028"/>
  </g>
</svg>
