<svg xmlns="http://www.w3.org/2000/svg" width="39.349" height="37.654" viewBox="0 0 39.349 37.654">
  <g id="lifestyle_grey" transform="translate(-3 -3)">
    <g id="Icon" transform="translate(3 3)">
      <path id="Combined_Shape" data-name="Combined Shape" d="M10.705,37.654a2.36,2.36,0,0,1-1.1-.271L0,32.331V0A2.333,2.333,0,0,1,1.041.244,2.357,2.357,0,0,1,2.11,1.312l4.805,9.736L17.66,12.61a2.353,2.353,0,0,1,1.3,4.013L11.189,24.2l1.835,10.7A2.352,2.352,0,0,1,11.1,37.62,2.366,2.366,0,0,1,10.705,37.654Z" transform="translate(19.674)" fill="#9c9c9c"/>
      <path id="Combined_Shape-2" data-name="Combined Shape" d="M8.971,37.654A2.354,2.354,0,0,1,6.65,34.9L8.485,24.2.711,16.623A2.353,2.353,0,0,1,.668,13.3a2.363,2.363,0,0,1,1.346-.686l10.745-1.561,4.805-9.736A2.34,2.34,0,0,1,19.674,0v32.33l-9.61,5.053A2.359,2.359,0,0,1,8.971,37.654Z" transform="translate(0 0)" fill="#d1d1d1"/>
    </g>
  </g>
</svg>
