<svg xmlns="http://www.w3.org/2000/svg" width="42.836" height="32.584" viewBox="0 0 42.836 32.584">
  <g id="mens_fashion_colored" transform="translate(-1.582 -7.667)">
    <g id="Icon" transform="translate(1.917 7.667)">
      <path id="Combined_Shape" data-name="Combined Shape" d="M9.725,32.584a1,1,0,0,1-1-1V14.606l-3.5,2.037a1,1,0,0,1-1.371-.367L-.2,9.194A1,1,0,0,1,.163,7.832L8.728,2.846a3,3,0,0,1,3-2.846H30.44a3,3,0,0,1,3,2.845L42,7.832a1,1,0,0,1,.364,1.362l-4.055,7.082a1,1,0,0,1-1.371.367L33.44,14.6V31.584a1,1,0,0,1-1,1Z" fill="#cf2028"/>
      <path id="Path_86" data-name="Path 86" d="M1.842,0a.5.5,0,0,0-.416.223L-.079,2.481a.5.5,0,0,0,.116.677L3.491,5.75,1.61,18.919a.5.5,0,0,0,.141.424l3.3,3.3a.5.5,0,0,0,.707,0l3.3-3.3a.5.5,0,0,0,.141-.424L7.325,5.75,10.78,3.159a.5.5,0,0,0,.116-.677L9.39.223A.5.5,0,0,0,8.974,0Z" transform="translate(15.333)"/>
    </g>
  </g>
</svg>
