<svg id="mobile_tablet_grey" xmlns="http://www.w3.org/2000/svg" width="23.318" height="38" viewBox="0 0 23.318 38">
  <path id="Combined_Shape" data-name="Combined Shape" d="M2.159,0A2.159,2.159,0,0,0,0,2.159v28.5a2.159,2.159,0,0,0,2.159,2.159H15.977a2.159,2.159,0,0,0,2.159-2.159V2.159A2.159,2.159,0,0,0,15.977,0Z" transform="translate(2.591 2.591)" fill="#d1d1d1"/>
  <path id="Combined_Shape-2" data-name="Combined Shape" d="M4.75,38A4.75,4.75,0,0,1,0,33.25V4.75A4.75,4.75,0,0,1,4.75,0H18.568a4.75,4.75,0,0,1,4.75,4.75v28.5A4.75,4.75,0,0,1,18.568,38Z" fill="#9c9c9c"/>
</svg>
