<svg xmlns="http://www.w3.org/2000/svg" width="42" height="39" viewBox="0 0 42 39">
  <g id="motor_bikes_colored" transform="translate(4316 1827.5)">
    <path id="Oval" d="M5.25,10.4A5.231,5.231,0,0,1,0,5.2a5.25,5.25,0,0,1,10.5,0A5.232,5.232,0,0,1,5.25,10.4Zm0-7.8A2.6,2.6,0,1,0,7.875,5.2,2.615,2.615,0,0,0,5.25,2.6Z" transform="translate(-4295 -1827.5)" fill="#cf2028"/>
    <path id="Oval-2" data-name="Oval" d="M7.875,15.6A7.846,7.846,0,0,1,0,7.8a7.875,7.875,0,0,1,15.75,0A7.846,7.846,0,0,1,7.875,15.6Zm0-13a5.2,5.2,0,1,0,5.25,5.2A5.231,5.231,0,0,0,7.875,2.6Z" transform="translate(-4316 -1804.1)"/>
    <path id="Oval-3" data-name="Oval" d="M7.875,15.6A7.846,7.846,0,0,1,0,7.8a7.875,7.875,0,0,1,15.75,0A7.846,7.846,0,0,1,7.875,15.6Zm0-13a5.2,5.2,0,1,0,5.25,5.2A5.231,5.231,0,0,0,7.875,2.6Z" transform="translate(-4289.75 -1804.1)"/>
    <path id="Path" d="M11.012,26a3.925,3.925,0,0,1-3.937-3.9l-.008-.407a9.089,9.089,0,0,0-4.949-7.673,3.88,3.88,0,0,1-.892-6.285L8.3,1.074A3.939,3.939,0,0,1,11.012,0a3.989,3.989,0,0,1,.68.059A3.911,3.911,0,0,1,14.516,2.12c.014.027.056.1.14.238l.159.241a7.989,7.989,0,0,0,.915,1.1,4.463,4.463,0,0,0,3.155,1.5l.27.009A3.9,3.9,0,0,1,18.864,13a12.422,12.422,0,0,1-8.17-3.244L10.6,9.667l-.58.547.145.145A16.726,16.726,0,0,1,14.941,21.55l.008.549A3.924,3.924,0,0,1,11.012,26Zm0-23.4a1.313,1.313,0,0,0-.9.358L3.033,9.617a1.293,1.293,0,0,0,.293,2.093,11.74,11.74,0,0,1,4.66,4.309A11.584,11.584,0,0,1,9.7,22.1a1.313,1.313,0,0,0,2.625,0,14.172,14.172,0,0,0-5.07-10.881A1.292,1.292,0,0,1,7.2,9.284L9.742,6.89a1.321,1.321,0,0,1,1.905.1,9.762,9.762,0,0,0,7.24,3.407,1.3,1.3,0,1,0,0-2.6,6.99,6.99,0,0,1-5.021-2.267,10.4,10.4,0,0,1-1.219-1.47,7.747,7.747,0,0,1-.461-.744,1.314,1.314,0,0,0-.947-.7A1.33,1.33,0,0,0,11.012,2.6Z" transform="translate(-4306.012 -1818.4)" fill="#cf2028"/>
  </g>
</svg>
