<svg xmlns="http://www.w3.org/2000/svg" width="42" height="39" viewBox="0 0 42 39">
  <g id="motor_bikes_grey" transform="translate(-2 -3)">
    <path id="Icon" d="M26.25,31.2A7.875,7.875,0,1,1,34.125,39,7.847,7.847,0,0,1,26.25,31.2Zm2.625,0a5.25,5.25,0,1,0,5.25-5.2A5.23,5.23,0,0,0,28.876,31.2ZM0,31.2A7.875,7.875,0,1,1,7.875,39,7.847,7.847,0,0,1,0,31.2Zm2.625,0A5.25,5.25,0,1,0,7.875,26,5.231,5.231,0,0,0,2.625,31.2Zm14.437,0-.008-.407a9.09,9.09,0,0,0-4.949-7.673,3.88,3.88,0,0,1-.892-6.285l7.075-6.659A3.942,3.942,0,0,1,21,9.1a4,4,0,0,1,.68.059A3.912,3.912,0,0,1,24.5,11.22c.014.028.056.105.14.238l.159.241a8.019,8.019,0,0,0,.915,1.1,4.462,4.462,0,0,0,3.155,1.5l.27.009a3.9,3.9,0,0,1-.292,7.79,12.417,12.417,0,0,1-8.17-3.244l-.094-.089-.58.547.145.145A16.724,16.724,0,0,1,24.929,30.65l.008.549a3.938,3.938,0,0,1-7.875,0ZM20.1,12.058l-7.075,6.659a1.293,1.293,0,0,0,.293,2.093,11.739,11.739,0,0,1,4.66,4.309,11.573,11.573,0,0,1,1.713,6.08,1.313,1.313,0,0,0,2.625,0,14.172,14.172,0,0,0-5.07-10.881,1.292,1.292,0,0,1-.055-1.932L19.73,15.99a1.322,1.322,0,0,1,1.905.1,9.761,9.761,0,0,0,7.24,3.407,1.3,1.3,0,1,0,0-2.6,6.989,6.989,0,0,1-5.021-2.267,10.362,10.362,0,0,1-1.219-1.47,7.69,7.69,0,0,1-.461-.744,1.315,1.315,0,0,0-.947-.7A1.369,1.369,0,0,0,21,11.7,1.314,1.314,0,0,0,20.1,12.058ZM21,5.2a5.25,5.25,0,0,1,10.5,0A5.25,5.25,0,0,1,21,5.2Zm2.625,0a2.625,2.625,0,1,0,2.624-2.6A2.615,2.615,0,0,0,23.625,5.2Z" transform="translate(2 3)" fill="#9c9c9c"/>
  </g>
</svg>
