<svg xmlns="http://www.w3.org/2000/svg" width="38.334" height="36.425" viewBox="0 0 38.334 36.425">
  <g id="pets_grey" transform="translate(-3.833 -5.75)">
    <path id="Icon" d="M8.357,36.378a6.017,6.017,0,0,1-4.466-4.446c-.575-3.892,2.511-6.67,5.022-9.181C10.6,20.8,12,19.129,13.666,17.173a8.255,8.255,0,0,1,3.354-2.53,3.843,3.843,0,0,1,.633-.172,8,8,0,0,1,1.514-.1,9.662,9.662,0,0,1,1.495.076,3.913,3.913,0,0,1,.633.173,8.131,8.131,0,0,1,3.354,2.53c1.687,1.955,3.086,3.622,4.754,5.577,2.51,2.511,5.6,5.29,5,9.2a6.045,6.045,0,0,1-4.466,4.446c-1.4.269-5.865-.843-10.618-.843h-.346c-4.217,0-8.207.89-10.031.89A3.005,3.005,0,0,1,8.357,36.378ZM28.75,12.459a4.792,4.792,0,1,1,4.792,4.792A4.792,4.792,0,0,1,28.75,12.459ZM0,12.459A4.792,4.792,0,1,1,4.792,17.25,4.791,4.791,0,0,1,0,12.459ZM20.125,4.792a4.792,4.792,0,1,1,4.792,4.792A4.792,4.792,0,0,1,20.125,4.792Zm-11.5,0a4.792,4.792,0,1,1,4.792,4.792A4.792,4.792,0,0,1,8.625,4.792Z" transform="translate(3.833 5.75)" fill="#9c9c9c"/>
  </g>
</svg>
