<svg xmlns="http://www.w3.org/2000/svg" width="38.667" height="40" viewBox="0 0 38.667 40">
  <g id="sports_grey" transform="translate(-3.667 -3)">
    <g id="Icon" transform="translate(3 3)">
      <g id="Board">
        <rect id="Rectangle" width="14.667" height="10.667" transform="translate(12.667 10.667)" fill="#d1d1d1"/>
        <path id="Path" d="M36.4,0H2.4A2.39,2.39,0,0,0,0,2.4V23.067a2.39,2.39,0,0,0,2.4,2.4H4.667a.63.63,0,0,0,.667-.667,3.333,3.333,0,0,1,3.333-3.467h2V10a.63.63,0,0,1,.667-.667h16A.63.63,0,0,1,28,10V21.333h2a3.3,3.3,0,0,1,3.333,3.333.63.63,0,0,0,.667.667h2.4a2.28,2.28,0,0,0,2.267-2.4V2.4A2.365,2.365,0,0,0,36.4,0Z" transform="translate(0.667)" fill="#d1d1d1"/>
      </g>
      <path id="Combined_Shape" data-name="Combined Shape" d="M17.734,17.333a.594.594,0,0,1-.4-.8l1.12-3.2H15.36L14.666,16.8a.885.885,0,0,1-.666.533c-.534-.133-.667-.4-.667-.8l.64-3.2H11.36l.64,3.2c0,.4-.133.667-.666.8a.885.885,0,0,1-.667-.533l-.693-3.467H6.747l1.12,3.2a.559.559,0,0,1-.4.8H7.333a.735.735,0,0,1-.667-.4L2.14,4H2A2.052,2.052,0,0,1,0,2,2.052,2.052,0,0,1,2,0H23.333a2.052,2.052,0,0,1,2,2,2.052,2.052,0,0,1-2,2H23.06l-3.065,8.759a.671.671,0,0,1-.106.3l-1.355,3.871c0,.266-.267.4-.534.4ZM18.92,12l1.4-4H16.426l-.8,4Zm-4.68,0,.8-4H10.293l.8,4ZM9.707,12l-.8-4H4.88l1.4,4ZM4.426,6.7a.772.772,0,0,1,.24-.036H8.64L8.107,4H3.48Zm16.24-.036a.832.832,0,0,1,.117.008L21.72,4H17.227l-.533,2.667Zm-5.36,0L15.84,4H9.493l.533,2.667Zm8.026-4A.632.632,0,0,0,24,2a.632.632,0,0,0-.667-.667H2A.632.632,0,0,0,1.333,2,.632.632,0,0,0,2,2.667H8.533a.544.544,0,0,1,.383,0h7.5a.543.543,0,0,1,.383,0ZM14,17.333Zm-2.667,0h0Z" transform="translate(7.333 22.667)" fill="#9c9c9c"/>
    </g>
  </g>
</svg>
