<svg xmlns="http://www.w3.org/2000/svg" width="41" height="36.047" viewBox="0 0 41 36.047">
  <g id="toys_games_grey" transform="translate(-3 -2.635)">
    <g id="Icon" transform="translate(3 2)">
      <path id="Path_21" data-name="Path 21" d="M3.536,18,0,16.444C1.425,10.8,3.711,7.279,6.907,6.224,8.571,5.675,11.086,2.139,11.086,0h3.727c0,4.422-3.7,9.907-7,11C6.037,11.583,4.6,13.8,3.536,18Z" transform="translate(18.732 0.635)" fill="#d1d1d1"/>
      <path id="Combined_Shape" data-name="Combined Shape" d="M30.75,20.5a10.223,10.223,0,0,1-7.907-3.728H18.158A10.251,10.251,0,1,1,7.537.363,3.472,3.472,0,0,1,9.091,0H31.91a3.463,3.463,0,0,1,1.553.363A10.252,10.252,0,0,1,30.75,20.5Zm-22.8-9.319a.5.5,0,0,0-.5.5v2.727a.5.5,0,0,0,.5.5h2.728a.5.5,0,0,0,.5-.5V11.682a.5.5,0,0,0-.5-.5ZM31.682,9.319a1.863,1.863,0,1,0,1.864,1.863A1.866,1.866,0,0,0,31.682,9.319Zm-20-1.864a.5.5,0,0,0-.5.5v2.728a.5.5,0,0,0,.5.5h2.727a.5.5,0,0,0,.5-.5V7.954a.5.5,0,0,0-.5-.5Zm-7.455,0a.5.5,0,0,0-.5.5v2.728a.5.5,0,0,0,.5.5H6.954a.5.5,0,0,0,.5-.5V7.954a.5.5,0,0,0-.5-.5ZM33.546,3.727a1.864,1.864,0,1,0,1.863,1.864A1.866,1.866,0,0,0,33.546,3.727Zm-25.591,0a.5.5,0,0,0-.5.5V6.954a.5.5,0,0,0,.5.5h2.728a.5.5,0,0,0,.5-.5V4.227a.5.5,0,0,0-.5-.5Z" transform="translate(0 16.182)" fill="#9c9c9c"/>
    </g>
  </g>
</svg>
