<svg xmlns="http://www.w3.org/2000/svg" width="40.219" height="40.033" viewBox="0 0 40.219 40.033">
  <g id="travel_grey" transform="translate(-2.993 -2.996)">
    <path id="Icon" d="M33.237,33.49l1.156-1.156a2.534,2.534,0,0,0,.659-2.436L30.941,14.28l5.435-5.435a5.252,5.252,0,0,0,.745-6.707,5.068,5.068,0,0,0-7.72-.652L23.775,7.113,8.16,3a2.534,2.534,0,0,0-2.438.659L4.566,4.819a2.534,2.534,0,0,0,.488,3.965l10.657,6.394L7.6,24.369l-2.534.037A2.534,2.534,0,0,0,2.9,25.06L.372,27.377a1.265,1.265,0,0,0,.4,2.059L5.659,32.2l3.21,5.06a1.269,1.269,0,0,0,2.061.4l2.211-2.108a2.534,2.534,0,0,0,.755-2.3l.041-2.543,8.94-8.359L29.272,33a2.534,2.534,0,0,0,3.965.488Z" transform="translate(4 4)" fill="none" stroke="#9c9c9c" stroke-linecap="round" stroke-linejoin="round" stroke-miterlimit="10" stroke-width="2"/>
  </g>
</svg>
