<svg xmlns="http://www.w3.org/2000/svg" width="40" height="40" viewBox="0 0 40 40">
  <g id="vintage_collection_grey" transform="translate(-3 -3)">
    <path id="Path" d="M0,0H40V40H0Z" transform="translate(3 3)" fill="none"/>
    <path id="Icon" d="M11.166,28.65a10.309,10.309,0,0,1,.134-1.6,10.721,10.721,0,0,1-1.3.9,10.014,10.014,0,0,1-10,0,9.86,9.86,0,0,1,6.433-9.317A10.133,10.133,0,0,1,5,17.967a9.949,9.949,0,0,1-5-8.65,10.01,10.01,0,0,1,10,0,9.107,9.107,0,0,1,1.3.916A9.909,9.909,0,0,1,16.167,0a9.909,9.909,0,0,1,4.866,10.233,10.721,10.721,0,0,1,1.3-.9,10.014,10.014,0,0,1,10,0A9.868,9.868,0,0,1,25.9,18.65a10.133,10.133,0,0,1,1.433.667,10.021,10.021,0,0,1,5,8.65,10.012,10.012,0,0,1-10,0,9.014,9.014,0,0,1-1.3-.9A9.909,9.909,0,0,1,16.167,37.3,9.994,9.994,0,0,1,11.166,28.65Z" transform="translate(6.833 4.35)" fill="#cf2028"/>
  </g>
</svg>
