<svg xmlns="http://www.w3.org/2000/svg" width="32.732" height="40" viewBox="0 0 32.732 40">
  <g id="womens_fashion_colored" transform="translate(-5.472 -3)">
    <g id="Icon" transform="translate(6 3)">
      <path id="Combined_Shape" data-name="Combined Shape" d="M23.344,16.842H7.738a1,1,0,0,1-.895-.553L-.577,1.447A.993.993,0,0,1-.534.475.994.994,0,0,1,.318,0H7.206c.589,3.2,4.171,5.614,8.335,5.614S23.289,3.2,23.877,0h6.888a1,1,0,0,1,.895,1.447L24.239,16.289A.994.994,0,0,1,23.344,16.842Z" transform="translate(0.296 0)"/>
      <path id="Rectangle" d="M6.914,1.257A2,2,0,0,1,8.771,0H22.9a2,2,0,0,1,1.857,1.257l7.37,18.424a1,1,0,0,1-.928,1.371H.473a1,1,0,0,1-.928-1.371Z" transform="translate(0 18.947)" fill="#cf2028"/>
    </g>
  </g>
</svg>
