<?xml version="1.0" encoding="utf-8"?>
<!-- Generator: Adobe Illustrator 19.0.0, SVG Export Plug-In . SVG Version: 6.00 Build 0)  -->
<svg version="1.2" baseProfile="tiny" id="Layer_1" xmlns="http://www.w3.org/2000/svg" xmlns:xlink="http://www.w3.org/1999/xlink"
	 x="0px" y="0px" width="70px" height="70px" viewBox="0 0 70 70" xml:space="preserve">
<g id="Edit_Meta_information_for_all_pages">
	<ellipse id="XMLID_1241_" fill="#D3D3D3" cx="38.5" cy="68.3" rx="29.3" ry="1.7"/>
	<g id="XMLID_1204_">
		<path id="XMLID_1062_" fill="#FFFFFF" stroke="#000000" stroke-width="2" stroke-miterlimit="10" d="M60.6,49.9H11.8
			c-1.6,0-2.9-1.4-2.9-3.1V33.5c0-1.7,1.3-3.1,2.9-3.1h48.8c0.4,0,0.8,0.2,1.1,0.5l7,8.2c0.5,0.6,0.5,1.5,0,2l-7,8.2
			C61.4,49.8,61,49.9,60.6,49.9z"/>
		<g id="XMLID_1205_">
			<path id="XMLID_1221_" d="M37.2,34.6c-0.2,0.1-0.4,0.3-0.6,0.6l-2.2,4.3l-2.2-4.3c-0.2-0.3-0.5-0.7-1.2-0.7
				c-0.4,0-0.7,0.1-0.9,0.3c-0.3,0.2-0.4,0.5-0.4,0.9v8.1c0,0.3,0.1,0.6,0.4,0.8c0.5,0.4,1.3,0.4,1.8,0c0.3-0.2,0.4-0.5,0.4-0.8
				v-3.4l1,1.9c0.1,0.2,0.3,0.4,0.5,0.5c0.4,0.2,0.9,0.2,1.3,0c0.2-0.1,0.4-0.3,0.5-0.5l1-1.9v3.4c0,0.3,0.1,0.6,0.4,0.8
				c0.2,0.2,0.5,0.3,0.9,0.3c0.3,0,0.6-0.1,0.9-0.3c0.2-0.2,0.4-0.5,0.4-0.8v-8.1c0-0.3-0.1-0.6-0.4-0.9
				C38.4,34.5,37.8,34.4,37.2,34.6z"/>
			<path id="XMLID_1218_" d="M42.7,42.2c0.2,0,0.3,0,0.5,0c1,0,1.7-0.2,2.2-0.6c0.5-0.4,0.7-1,0.7-1.8c0-0.8-0.3-1.4-0.8-1.9
				c-0.5-0.5-1.3-0.7-2.2-0.7c-0.5,0-1,0.1-1.4,0.2c-0.4,0.1-0.7,0.3-1,0.6c-0.3,0.2-0.5,0.5-0.6,0.9C40.1,39.2,40,39.6,40,40v2.3
				c0,0.4,0.1,0.7,0.2,1.1c0.1,0.3,0.4,0.6,0.6,0.9c0.3,0.2,0.6,0.4,1,0.6c0.4,0.1,0.8,0.2,1.3,0.2c0.2,0,0.5,0,0.8-0.1
				c0.3,0,0.6-0.1,0.9-0.2c0.3-0.1,0.6-0.2,0.8-0.4c0.3-0.2,0.4-0.5,0.4-0.8c0-0.1,0-0.2-0.1-0.3c0-0.1-0.1-0.2-0.2-0.3
				c-0.1-0.1-0.2-0.2-0.4-0.3c-0.3-0.1-0.7-0.1-0.9-0.1c-0.1,0-0.2,0.1-0.2,0.1c-0.2,0.1-0.4,0.2-0.6,0.2c-0.2,0-0.3,0.1-0.5,0.1
				c-0.4,0-0.6-0.1-0.6-0.1c-0.1-0.1-0.1-0.2-0.1-0.3v-0.1C42.6,42.2,42.7,42.2,42.7,42.2z M42.5,39.9c0-0.2,0.1-0.3,0.2-0.4
				c0.1-0.1,0.3-0.2,0.5-0.2c0.2,0,0.3,0,0.4,0.1c0.1,0.1,0.1,0.2,0.1,0.4c0,0.2,0,0.3-0.1,0.3c-0.1,0.1-0.2,0.1-0.4,0.1
				c-0.1,0-0.2,0-0.4,0c-0.1,0-0.2,0-0.3,0V39.9z"/>
			<path id="XMLID_1217_" d="M51.1,42.9c-0.2-0.2-0.6-0.2-1.1-0.2c0,0-0.1,0-0.1,0c0,0-0.1,0-0.1,0c-0.2,0-0.3,0-0.3-0.1
				c0-0.1-0.1-0.4-0.1-0.9v-1.8h0.7c0.3,0,0.6-0.1,0.8-0.3c0.2-0.2,0.4-0.5,0.4-0.8c0-0.3-0.1-0.6-0.4-0.8c-0.2-0.2-0.5-0.3-0.8-0.3
				h-0.7v-1.2c0-0.3-0.1-0.6-0.3-0.8c-0.2-0.2-0.5-0.3-0.9-0.3c-0.4,0-0.7,0.1-0.9,0.3c-0.2,0.2-0.3,0.5-0.3,0.8v5.3
				c0,0.5,0,0.9,0.1,1.3c0.1,0.4,0.2,0.8,0.5,1c0.2,0.3,0.6,0.5,1,0.7c0.4,0.1,0.9,0.2,1.4,0.2c0.2,0,0.4,0,0.5,0
				c0.2,0,0.4-0.1,0.5-0.2c0.2-0.1,0.3-0.2,0.4-0.4c0.1-0.2,0.2-0.4,0.2-0.6C51.5,43.3,51.3,43,51.1,42.9z"/>
			<path id="XMLID_1206_" d="M58.2,43.1L57.9,43c0,0,0,0,0-0.1v-2.5c0-1-0.2-1.8-0.7-2.3c-0.5-0.5-1.3-0.8-2.4-0.8
				c-0.3,0-0.6,0-0.9,0.1c-0.3,0-0.6,0.1-0.8,0.2c-0.3,0.1-0.5,0.3-0.6,0.4c-0.2,0.2-0.3,0.4-0.3,0.7c0,0.2,0.1,0.5,0.2,0.7
				c0.1,0.2,0.4,0.4,0.9,0.4c0.2,0,0.3,0,0.4-0.1c0.1,0,0.1-0.1,0.2-0.1c0.1-0.1,0.2-0.1,0.4-0.1c0.1,0,0.2,0,0.4,0
				c0.6,0,0.7,0.3,0.7,0.6v0c-0.1,0-0.1,0-0.2,0c-0.2,0-0.4,0-0.6,0c-2.5,0-3,1.3-3,2.4c0,0.7,0.2,1.3,0.7,1.8
				c0.5,0.4,1.2,0.7,2,0.7c0.4,0,0.8-0.1,1.1-0.2c0.2-0.1,0.5-0.2,0.7-0.3c0.1,0.1,0.3,0.2,0.4,0.3c0.2,0.1,0.5,0.2,0.8,0.2
				c0.4,0,0.8-0.1,1-0.3c0.2-0.2,0.3-0.4,0.3-0.8C58.7,43.5,58.5,43.2,58.2,43.1z M54.7,42.8c-0.3,0-0.4-0.1-0.5-0.1
				c0,0-0.1-0.1-0.1-0.3c0-0.1,0-0.3,0.1-0.4c0,0,0.1-0.1,0.5-0.1c0.2,0,0.4,0,0.7,0.1v0.6c-0.1,0.1-0.2,0.1-0.3,0.1
				C55,42.8,54.8,42.8,54.7,42.8z"/>
		</g>
	</g>
	<polygon id="XMLID_273_" fill="#B2B2B2" points="17.6,31 15.3,31 26.1,49 28.4,49 	"/>
	<g id="XMLID_1202_">
		<g id="XMLID_1244_">
			
				<rect id="XMLID_1252_" x="12.8" y="23.4" transform="matrix(-0.8633 0.5047 -0.5047 -0.8633 53.5827 72.4849)" fill="#9AD1A8" stroke="#000000" stroke-width="2" stroke-linejoin="round" stroke-miterlimit="10" width="8.3" height="40.1"/>
			
				<rect id="XMLID_1251_" x="3.7" y="26" transform="matrix(-0.8633 0.5047 -0.5047 -0.8633 28.622 47.9275)" fill="#FFFFFF" stroke="#020303" stroke-width="2" stroke-linecap="round" stroke-miterlimit="10" width="8.3" height="3.7"/>
			<path id="XMLID_1250_" fill="#9AD1A8" stroke="#000000" stroke-width="2" stroke-miterlimit="10" d="M3.2,28.2l7.2-4.2l-1.9-3.2
				c-0.7-1.2-2.2-1.6-3.4-0.9l-2.8,1.7C1,22.2,0.6,23.8,1.3,25L3.2,28.2z"/>
			<g id="XMLID_1246_">
				<path id="XMLID_3_" fill="#FFFFFF" d="M30.8,59C30.8,59,30.9,59,30.8,59l0.7,8.3c0,0.5-0.5,0.8-1,0.6l-6.9-4.6c0,0,0,0,0,0
					L30.8,59z"/>
				<path id="XMLID_2_" fill="none" stroke="#000000" stroke-width="2" stroke-linecap="round" stroke-miterlimit="10" d="M30.8,59
					C30.8,59,30.9,59,30.8,59l0.7,8.3c0,0.5-0.5,0.8-1,0.6l-6.9-4.6c0,0,0,0,0,0L30.8,59z"/>
			</g>
			
				<line id="XMLID_1245_" fill="none" stroke="#000000" stroke-width="2" stroke-linecap="round" stroke-miterlimit="10" x1="30.6" y1="65.6" x2="29.4" y2="66.3"/>
		</g>
	</g>
</g>
</svg>
